<svg width="87" height="80" viewBox="0 0 87 80" fill="none" xmlns="http://www.w3.org/2000/svg">
<g filter="url(#filter0_d_70_272)">
<path d="M11 11H68V51C68 56.5228 63.5228 61 58 61H21C15.4772 61 11 56.5228 11 51V11Z" fill="white" shape-rendering="crispEdges"/>
<path d="M28.6675 34.806H38.0959V32.963H31.9461C34.2159 30.8872 37.7079 28.2682 37.7079 24.8344C37.7079 22.293 36.0783 20.5664 33.2071 20.5664C30.7045 20.5664 28.7257 22.0602 28.6481 25.1254H30.7821C30.8403 23.5346 31.6745 22.4482 33.2265 22.4482C34.8755 22.4482 35.5157 23.457 35.5157 24.9314C35.5157 27.7056 32.0043 30.2664 28.6675 33.1958V34.806ZM49.6806 24.136C49.4478 22.2542 48.0704 20.5082 45.3156 20.5082C41.7848 20.5082 40.3104 23.1854 40.3104 27.6086C40.3104 32.1094 41.3774 35 45.4902 35C48.5166 35 50.1268 32.963 50.1268 30.2858C50.1268 27.337 48.3226 25.6298 45.7812 25.6298C44.3068 25.6298 42.91 26.2506 42.2116 27.4146C42.2698 23.7092 43.298 22.3512 45.2962 22.3512C46.693 22.3512 47.372 22.9914 47.6436 24.136H49.6806ZM45.2962 27.4922C47.1586 27.4922 48.0122 28.695 48.0122 30.3828C48.0122 32.0512 47.0034 33.157 45.3738 33.157C43.492 33.157 42.4638 31.993 42.4638 30.247C42.4638 28.3652 43.8412 27.4922 45.2962 27.4922Z" fill="#2B2B2B"/>
<path d="M24.8161 51.016L26.4321 51L29.1201 42.024L31.7121 51H33.3441L36.5761 39.848H35.0081L32.5601 49.272L30.0001 39.848H28.3681L25.6801 49.304L23.2481 39.848H21.6961L24.8161 51.016ZM41.8975 43.32C43.4015 43.32 44.6815 44.264 44.6655 45.976H39.1295C39.2895 44.264 40.4735 43.32 41.8975 43.32ZM45.9935 48.296H44.4255C44.1055 49.24 43.2735 49.912 41.9615 49.912C40.4735 49.912 39.2255 48.936 39.1135 47.16H46.1215C46.1535 46.856 46.1695 46.6 46.1695 46.28C46.1695 43.88 44.5055 42.088 41.9615 42.088C39.4015 42.088 37.6255 43.832 37.6255 46.6C37.6255 49.384 39.4655 51.144 41.9615 51.144C44.1375 51.144 45.5455 49.896 45.9935 48.296ZM47.5474 46.584C47.5474 49.304 49.3554 51.144 51.7074 51.144C53.3074 51.144 54.4434 50.328 54.9714 49.352V51H56.4434V39.16H54.9714V43.8C54.3634 42.792 53.0994 42.088 51.7234 42.088C49.3554 42.088 47.5474 43.848 47.5474 46.584ZM54.9714 46.6C54.9714 48.664 53.5954 49.864 51.9954 49.864C50.3954 49.864 49.0354 48.648 49.0354 46.584C49.0354 44.52 50.3954 43.352 51.9954 43.352C53.5954 43.352 54.9714 44.568 54.9714 46.6Z" fill="#808080"/>
</g>
<defs>
<filter id="filter0_d_70_272" x="0" y="0" width="87" height="80" filterUnits="userSpaceOnUse" color-interpolation-filters="sRGB">
<feFlood flood-opacity="0" result="BackgroundImageFix"/>
<feColorMatrix in="SourceAlpha" type="matrix" values="0 0 0 0 0 0 0 0 0 0 0 0 0 0 0 0 0 0 127 0" result="hardAlpha"/>
<feOffset dx="4" dy="4"/>
<feGaussianBlur stdDeviation="7.5"/>
<feComposite in2="hardAlpha" operator="out"/>
<feColorMatrix type="matrix" values="0 0 0 0 0 0 0 0 0 0 0 0 0 0 0 0 0 0 0.25 0"/>
<feBlend mode="normal" in2="BackgroundImageFix" result="effect1_dropShadow_70_272"/>
<feBlend mode="normal" in="SourceGraphic" in2="effect1_dropShadow_70_272" result="shape"/>
</filter>
</defs>
</svg>
