<svg width="85" height="80" viewBox="0 0 85 80" fill="none" xmlns="http://www.w3.org/2000/svg">
<g filter="url(#filter0_d_70_269)">
<path d="M11 11H66V51C66 56.5228 61.5228 61 56 61H21C15.4772 61 11 56.5228 11 51V11Z" fill="white" shape-rendering="crispEdges"/>
<path d="M27.2643 27.7444C27.2643 31.8572 28.3507 34.9612 32.3083 34.9612C36.2659 34.9612 37.3523 31.8572 37.3523 27.7444C37.3523 23.7092 36.2659 20.6052 32.3083 20.6052C28.3507 20.6052 27.2643 23.7092 27.2643 27.7444ZM35.1795 27.7444C35.1795 30.5186 34.8885 32.9436 32.3083 32.9436C29.7281 32.9436 29.4371 30.5186 29.4371 27.7444C29.4371 25.106 29.7281 22.6228 32.3083 22.6228C34.8885 22.6228 35.1795 25.106 35.1795 27.7444ZM42.0786 27.6086C40.6624 28.1324 39.7118 29.3934 39.7118 31.1006C39.7118 33.6808 41.807 35.3492 44.717 35.3492C47.6464 35.3492 49.7416 33.6808 49.7416 31.1006C49.7416 29.4128 48.791 28.1518 47.3554 27.6086C48.5 27.046 49.373 25.9402 49.373 24.427C49.373 22.39 47.8404 20.6052 44.717 20.6052C41.5936 20.6052 40.061 22.3706 40.061 24.427C40.061 25.9984 40.8758 27.0072 42.0786 27.6086ZM44.717 26.9102C43.2426 26.9102 42.195 25.9984 42.195 24.718C42.195 23.2242 43.2038 22.4482 44.717 22.4482C46.269 22.4482 47.2584 23.2436 47.2584 24.6986C47.2584 25.979 46.1914 26.9102 44.717 26.9102ZM44.717 28.5786C46.3854 28.5786 47.5688 29.4322 47.5688 31.023C47.5688 32.4392 46.5018 33.5062 44.717 33.5062C42.9128 33.5062 41.8264 32.4586 41.8264 31.023C41.8264 29.374 43.0874 28.5786 44.717 28.5786Z" fill="#2B2B2B"/>
<path d="M22.607 51H24.063V42.728L27.759 51H28.783L32.463 42.744V51H33.919V39.928H32.367L28.271 49.08L24.175 39.928H22.607V51ZM44.7083 46.6C44.7083 43.832 42.7723 42.088 40.2763 42.088C37.7963 42.088 35.8443 43.832 35.8443 46.6C35.8443 49.384 37.7323 51.144 40.2123 51.144C42.7083 51.144 44.7083 49.384 44.7083 46.6ZM37.3323 46.6C37.3323 44.392 38.7243 43.352 40.2603 43.352C41.7643 43.352 43.2203 44.392 43.2203 46.6C43.2203 48.824 41.7323 49.864 40.2123 49.864C38.6923 49.864 37.3323 48.824 37.3323 46.6ZM53.0386 51H54.4786V45.832C54.4786 43.32 52.9266 42.072 50.8946 42.072C49.7106 42.072 48.6546 42.568 48.0786 43.48V42.232H46.6226V51H48.0786V46.152C48.0786 44.264 49.1026 43.336 50.5906 43.336C52.0626 43.336 53.0386 44.248 53.0386 46.04V51Z" fill="#808080"/>
</g>
<defs>
<filter id="filter0_d_70_269" x="0" y="0" width="85" height="80" filterUnits="userSpaceOnUse" color-interpolation-filters="sRGB">
<feFlood flood-opacity="0" result="BackgroundImageFix"/>
<feColorMatrix in="SourceAlpha" type="matrix" values="0 0 0 0 0 0 0 0 0 0 0 0 0 0 0 0 0 0 127 0" result="hardAlpha"/>
<feOffset dx="4" dy="4"/>
<feGaussianBlur stdDeviation="7.5"/>
<feComposite in2="hardAlpha" operator="out"/>
<feColorMatrix type="matrix" values="0 0 0 0 0 0 0 0 0 0 0 0 0 0 0 0 0 0 0.25 0"/>
<feBlend mode="normal" in2="BackgroundImageFix" result="effect1_dropShadow_70_269"/>
<feBlend mode="normal" in="SourceGraphic" in2="effect1_dropShadow_70_269" result="shape"/>
</filter>
</defs>
</svg>
