<svg width="79" height="80" viewBox="0 0 79 80" fill="none" xmlns="http://www.w3.org/2000/svg">
<g filter="url(#filter0_d_70_268)">
<path d="M11 11H60V51C60 56.5228 55.5228 61 50 61H21C15.4772 61 11 56.5228 11 51V11Z" fill="white" shape-rendering="crispEdges"/>
<path d="M24.7054 34.806H34.1338V32.963H27.984C30.2538 30.8872 33.7458 28.2682 33.7458 24.8344C33.7458 22.293 32.1162 20.5664 29.245 20.5664C26.7424 20.5664 24.7636 22.0602 24.686 25.1254H26.82C26.8782 23.5346 27.7124 22.4482 29.2644 22.4482C30.9134 22.4482 31.5536 23.457 31.5536 24.9314C31.5536 27.7056 28.0422 30.2664 24.7054 33.1958V34.806ZM38.4629 27.6086C37.0467 28.1324 36.0961 29.3934 36.0961 31.1006C36.0961 33.6808 38.1913 35.3492 41.1013 35.3492C44.0307 35.3492 46.1259 33.6808 46.1259 31.1006C46.1259 29.4128 45.1753 28.1518 43.7397 27.6086C44.8843 27.046 45.7573 25.9402 45.7573 24.427C45.7573 22.39 44.2247 20.6052 41.1013 20.6052C37.9779 20.6052 36.4453 22.3706 36.4453 24.427C36.4453 25.9984 37.2601 27.0072 38.4629 27.6086ZM41.1013 26.9102C39.6269 26.9102 38.5793 25.9984 38.5793 24.718C38.5793 23.2242 39.5881 22.4482 41.1013 22.4482C42.6533 22.4482 43.6427 23.2436 43.6427 24.6986C43.6427 25.979 42.5757 26.9102 41.1013 26.9102ZM41.1013 28.5786C42.7697 28.5786 43.9531 29.4322 43.9531 31.023C43.9531 32.4392 42.8861 33.5062 41.1013 33.5062C39.2971 33.5062 38.2107 32.4586 38.2107 31.023C38.2107 29.374 39.4717 28.5786 41.1013 28.5786Z" fill="#2B2B2B"/>
<path d="M21.6378 41.032H24.6938V51H26.1498V41.032H29.1898V39.848H21.6378V41.032ZM38.758 42.232H37.302V47.048C37.302 48.936 36.294 49.864 34.79 49.864C33.318 49.864 32.342 48.952 32.342 47.176V42.232H30.902V47.368C30.902 49.88 32.486 51.128 34.502 51.128C35.67 51.128 36.742 50.616 37.302 49.704V51H38.758V42.232ZM44.9444 43.32C46.4484 43.32 47.7284 44.264 47.7124 45.976H42.1764C42.3364 44.264 43.5204 43.32 44.9444 43.32ZM49.0404 48.296H47.4724C47.1524 49.24 46.3204 49.912 45.0084 49.912C43.5204 49.912 42.2724 48.936 42.1604 47.16H49.1684C49.2004 46.856 49.2164 46.6 49.2164 46.28C49.2164 43.88 47.5524 42.088 45.0084 42.088C42.4484 42.088 40.6724 43.832 40.6724 46.6C40.6724 49.384 42.5124 51.144 45.0084 51.144C47.1844 51.144 48.5924 49.896 49.0404 48.296Z" fill="#808080"/>
</g>
<defs>
<filter id="filter0_d_70_268" x="0" y="0" width="79" height="80" filterUnits="userSpaceOnUse" color-interpolation-filters="sRGB">
<feFlood flood-opacity="0" result="BackgroundImageFix"/>
<feColorMatrix in="SourceAlpha" type="matrix" values="0 0 0 0 0 0 0 0 0 0 0 0 0 0 0 0 0 0 127 0" result="hardAlpha"/>
<feOffset dx="4" dy="4"/>
<feGaussianBlur stdDeviation="7.5"/>
<feComposite in2="hardAlpha" operator="out"/>
<feColorMatrix type="matrix" values="0 0 0 0 0 0 0 0 0 0 0 0 0 0 0 0 0 0 0.25 0"/>
<feBlend mode="normal" in2="BackgroundImageFix" result="effect1_dropShadow_70_268"/>
<feBlend mode="normal" in="SourceGraphic" in2="effect1_dropShadow_70_268" result="shape"/>
</filter>
</defs>
</svg>
