<svg width="134" height="14" viewBox="0 0 134 14" fill="none" xmlns="http://www.w3.org/2000/svg">
<path d="M31.8872 11H33.164L29.8257 1.7831H28.4292L25.0776 11H26.3544L27.0992 8.9385H31.1424L31.8872 11ZM30.7966 7.9543H27.445L29.1208 3.2727L30.7966 7.9543ZM34.1725 7.3292C34.1725 9.5902 35.6754 11.1197 37.6305 11.1197C38.9605 11.1197 39.9048 10.4414 40.3437 9.6301V11H41.5673V1.158H40.3437V5.015C39.8383 4.1771 38.7876 3.5919 37.6438 3.5919C35.6754 3.5919 34.1725 5.0549 34.1725 7.3292ZM40.3437 7.3425C40.3437 9.0582 39.1999 10.0557 37.8699 10.0557C36.5399 10.0557 35.4094 9.0449 35.4094 7.3292C35.4094 5.6135 36.5399 4.6426 37.8699 4.6426C39.1999 4.6426 40.3437 5.6534 40.3437 7.3425ZM42.7481 3.7116L45.6076 11H47.0174L49.8769 3.7116H48.5868L46.3258 9.8828L44.0515 3.7116H42.7481ZM50.6157 7.3292C50.6157 9.5902 52.1186 11.1197 54.0604 11.1197C55.4037 11.1197 56.348 10.4281 56.7869 9.6434V11H58.0105V3.7116H56.7869V5.0416C56.3613 4.2835 55.4303 3.5919 54.0737 3.5919C52.1186 3.5919 50.6157 5.0549 50.6157 7.3292ZM56.7869 7.3425C56.7869 9.0582 55.6431 10.0557 54.3131 10.0557C52.9831 10.0557 51.8526 9.0449 51.8526 7.3292C51.8526 5.6135 52.9831 4.6426 54.3131 4.6426C55.6431 4.6426 56.7869 5.6534 56.7869 7.3425ZM65.389 11H66.586V6.7041C66.586 4.616 65.2959 3.5786 63.6068 3.5786C62.6226 3.5786 61.7448 3.9909 61.266 4.749V3.7116H60.0557V11H61.266V6.9701C61.266 5.4007 62.1172 4.6293 63.3541 4.6293C64.5777 4.6293 65.389 5.3874 65.389 6.877V11ZM68.1109 7.3425C68.1109 9.6567 69.5872 11.1197 71.662 11.1197C73.4708 11.1197 74.6545 10.1089 75.0269 8.6592H73.7235C73.4575 9.5769 72.7393 10.0956 71.662 10.0956C70.332 10.0956 69.3478 9.1513 69.3478 7.3425C69.3478 5.5603 70.332 4.616 71.662 4.616C72.7393 4.616 73.4708 5.1746 73.7235 6.0524H75.0269C74.6545 4.5229 73.4708 3.5919 71.662 3.5919C69.5872 3.5919 68.1109 5.0549 68.1109 7.3425ZM79.7407 4.616C80.9909 4.616 82.0549 5.4007 82.0416 6.8238H77.4398C77.5728 5.4007 78.557 4.616 79.7407 4.616ZM83.1455 8.7523H81.8421C81.5761 9.537 80.8845 10.0956 79.7939 10.0956C78.557 10.0956 77.5196 9.2843 77.4265 7.808H83.2519C83.2785 7.5553 83.2918 7.3425 83.2918 7.0765C83.2918 5.0815 81.9086 3.5919 79.7939 3.5919C77.6659 3.5919 76.1896 5.0416 76.1896 7.3425C76.1896 9.6567 77.7191 11.1197 79.7939 11.1197C81.6027 11.1197 82.7731 10.0823 83.1455 8.7523ZM94.46 8.473C94.46 5.0416 89.4592 6.5312 89.4592 4.1372C89.4592 3.1397 90.2439 2.621 91.2414 2.6476C92.3719 2.6609 92.9571 3.3658 93.0369 3.9909H94.3669C94.2206 2.5811 93.0635 1.6102 91.2946 1.6102C89.4592 1.6102 88.2223 2.6476 88.2223 4.1771C88.2223 7.6218 93.2364 6.0258 93.2364 8.5262C93.2364 9.404 92.5448 10.069 91.3744 10.069C90.0843 10.069 89.539 9.2976 89.4592 8.5262H88.1691C88.1957 10.0557 89.5124 11.0931 91.3744 11.0931C93.3827 11.0931 94.46 9.7897 94.46 8.473ZM99.34 4.616C100.59 4.616 101.654 5.4007 101.641 6.8238H97.0391C97.1721 5.4007 98.1563 4.616 99.34 4.616ZM102.745 8.7523H101.441C101.175 9.537 100.484 10.0956 99.3932 10.0956C98.1563 10.0956 97.1189 9.2843 97.0258 7.808H102.851C102.878 7.5553 102.891 7.3425 102.891 7.0765C102.891 5.0815 101.508 3.5919 99.3932 3.5919C97.2652 3.5919 95.7889 5.0416 95.7889 7.3425C95.7889 9.6567 97.3184 11.1197 99.3932 11.1197C101.202 11.1197 102.372 10.0823 102.745 8.7523ZM104.036 7.3292C104.036 9.5902 105.539 11.1197 107.481 11.1197C108.824 11.1197 109.769 10.4281 110.208 9.6434V11H111.431V3.7116H110.208V5.0416C109.782 4.2835 108.851 3.5919 107.494 3.5919C105.539 3.5919 104.036 5.0549 104.036 7.3292ZM110.208 7.3425C110.208 9.0582 109.064 10.0557 107.734 10.0557C106.404 10.0557 105.273 9.0449 105.273 7.3292C105.273 5.6135 106.404 4.6426 107.734 4.6426C109.064 4.6426 110.208 5.6534 110.208 7.3425ZM114.687 7.0366C114.687 5.3475 115.565 4.8288 116.722 4.8288H117.041V3.5786C115.884 3.5786 115.099 4.084 114.687 4.8953V3.7116H113.477V11H114.687V7.0366ZM117.986 7.3425C117.986 9.6567 119.462 11.1197 121.537 11.1197C123.346 11.1197 124.529 10.1089 124.902 8.6592H123.598C123.332 9.5769 122.614 10.0956 121.537 10.0956C120.207 10.0956 119.223 9.1513 119.223 7.3425C119.223 5.5603 120.207 4.616 121.537 4.616C122.614 4.616 123.346 5.1746 123.598 6.0524H124.902C124.529 4.5229 123.346 3.5919 121.537 3.5919C119.462 3.5919 117.986 5.0549 117.986 7.3425ZM126.517 11H127.727V6.9701C127.727 5.4007 128.578 4.6293 129.815 4.6293C131.039 4.6293 131.85 5.3874 131.85 6.877V11H133.047V6.7041C133.047 4.616 131.757 3.5786 130.134 3.5786C129.11 3.5786 128.206 3.9909 127.727 4.7623V1.158H126.517V11Z" fill="#3A0CA3"/>
<path d="M12.0256 14C11.7313 14 11.4872 13.7786 11.4872 13.5116V6.34883C11.4872 6.08185 11.7313 5.86046 12.0256 5.86046C12.32 5.86046 12.5641 6.08185 12.5641 6.34883V13.5116C12.5641 13.7786 12.32 14 12.0256 14Z" fill="#3A0CA3"/>
<path d="M12.0256 4.23256C11.7313 4.23256 11.4872 4.01116 11.4872 3.74419V0.488372C11.4872 0.221395 11.7313 0 12.0256 0C12.32 0 12.5641 0.221395 12.5641 0.488372V3.74419C12.5641 4.01116 12.32 4.23256 12.0256 4.23256Z" fill="#3A0CA3"/>
<path d="M7.00001 14C6.70565 14 6.46155 13.7786 6.46155 13.5116V10.2558C6.46155 9.98882 6.70565 9.76743 7.00001 9.76743C7.29437 9.76743 7.53847 9.98882 7.53847 10.2558V13.5116C7.53847 13.7786 7.29437 14 7.00001 14Z" fill="#3A0CA3"/>
<path d="M7.00001 8.13953C6.70565 8.13953 6.46155 7.91814 6.46155 7.65116V0.488372C6.46155 0.221395 6.70565 0 7.00001 0C7.29437 0 7.53847 0.221395 7.53847 0.488372V7.65116C7.53847 7.91814 7.29437 8.13953 7.00001 8.13953Z" fill="#3A0CA3"/>
<path d="M1.97434 14C1.67999 14 1.43588 13.7786 1.43588 13.5116V6.34883C1.43588 6.08185 1.67999 5.86046 1.97434 5.86046C2.2687 5.86046 2.51281 6.08185 2.51281 6.34883V13.5116C2.51281 13.7786 2.2687 14 1.97434 14Z" fill="#3A0CA3"/>
<path d="M1.97434 4.23256C1.67999 4.23256 1.43588 4.01116 1.43588 3.74419V0.488372C1.43588 0.221395 1.67999 0 1.97434 0C2.2687 0 2.51281 0.221395 2.51281 0.488372V3.74419C2.51281 4.01116 2.2687 4.23256 1.97434 4.23256Z" fill="#3A0CA3"/>
<path d="M3.41026 6.8372H0.538462C0.244103 6.8372 0 6.61581 0 6.34883C0 6.08185 0.244103 5.86046 0.538462 5.86046H3.41026C3.70462 5.86046 3.94872 6.08185 3.94872 6.34883C3.94872 6.61581 3.70462 6.8372 3.41026 6.8372Z" fill="#3A0CA3"/>
<path d="M13.4615 6.8372H10.5897C10.2954 6.8372 10.0513 6.61581 10.0513 6.34883C10.0513 6.08185 10.2954 5.86046 10.5897 5.86046H13.4615C13.7559 5.86046 14 6.08185 14 6.34883C14 6.61581 13.7559 6.8372 13.4615 6.8372Z" fill="#3A0CA3"/>
<path d="M8.43589 8.13952H5.5641C5.26974 8.13952 5.02563 7.91813 5.02563 7.65115C5.02563 7.38418 5.26974 7.16278 5.5641 7.16278H8.43589C8.73025 7.16278 8.97435 7.38418 8.97435 7.65115C8.97435 7.91813 8.73025 8.13952 8.43589 8.13952Z" fill="#3A0CA3"/>
</svg>
