<svg width="215" height="18" viewBox="0 0 215 18" fill="none" xmlns="http://www.w3.org/2000/svg">
<path d="M26.985 6.4564C26.985 7.4938 26.3865 8.2386 25.0166 8.2386H23.2344V4.7274H25.0166C26.3998 4.7274 26.985 5.4057 26.985 6.4564ZM22.0241 3.7299V13H23.2344V9.2095H24.6974L26.9052 13H28.3549L26.0274 9.1164C27.5835 8.7706 28.2352 7.6401 28.2352 6.4564C28.2352 4.9402 27.1978 3.7299 25.0166 3.7299H22.0241ZM33.2147 6.616C34.4649 6.616 35.5289 7.4007 35.5156 8.8238H30.9138C31.0468 7.4007 32.031 6.616 33.2147 6.616ZM36.6195 10.7523H35.3161C35.0501 11.537 34.3585 12.0956 33.2679 12.0956C32.031 12.0956 30.9936 11.2843 30.9005 9.808H36.7259C36.7525 9.5553 36.7658 9.3425 36.7658 9.0765C36.7658 7.0815 35.3826 5.5919 33.2679 5.5919C31.1399 5.5919 29.6636 7.0416 29.6636 9.3425C29.6636 11.6567 31.1931 13.1197 33.2679 13.1197C35.0767 13.1197 36.2471 12.0823 36.6195 10.7523ZM42.8189 5.7116H37.9112V6.6958H41.4224L37.8846 12.0025V13H42.8455V12.0025H39.2678L42.8189 6.6958V5.7116ZM44.4159 13H45.6262V5.7116H44.4159V13ZM45.041 4.5279C45.4799 4.5279 45.839 4.1688 45.839 3.7033C45.839 3.2378 45.4799 2.8787 45.041 2.8787C44.5755 2.8787 44.2164 3.2378 44.2164 3.7033C44.2164 4.1688 44.5755 4.5279 45.041 4.5279ZM47.6889 13H48.8992V3.158H47.6889V13ZM50.962 13H52.1723V3.158H50.962V13ZM53.7828 9.3292C53.7828 11.5902 55.2857 13.1197 57.2275 13.1197C58.5708 13.1197 59.5151 12.4281 59.954 11.6434V13H61.1776V5.7116H59.954V7.0416C59.5284 6.2835 58.5974 5.5919 57.2408 5.5919C55.2857 5.5919 53.7828 7.0549 53.7828 9.3292ZM59.954 9.3425C59.954 11.0582 58.8102 12.0557 57.4802 12.0557C56.1502 12.0557 55.0197 11.0449 55.0197 9.3292C55.0197 7.6135 56.1502 6.6426 57.4802 6.6426C58.8102 6.6426 59.954 7.6534 59.954 9.3425ZM62.1722 14.9019H62.9835L64.4731 11.3242H63.1431L62.1722 14.9019ZM70.1635 13H71.3871V3.3841H68.8867V4.488H70.1635V13ZM75.2216 7.9992C74.1443 8.3184 73.4394 9.1962 73.4394 10.4065C73.4394 12.1488 74.8093 13.266 76.8309 13.266C78.8658 13.266 80.249 12.1488 80.249 10.4065C80.249 9.2095 79.5441 8.3317 78.4535 7.9992C79.3978 7.6268 79.9963 6.8288 79.9963 5.7914C79.9963 4.3949 78.919 3.2378 76.8309 3.2378C74.7428 3.2378 73.6788 4.3816 73.6788 5.7914C73.6788 6.8687 74.2374 7.6135 75.2216 7.9992ZM76.8309 7.6002C75.6605 7.6002 74.8492 6.9485 74.8492 5.951C74.8492 4.8205 75.6472 4.2486 76.8309 4.2486C78.0412 4.2486 78.8259 4.8338 78.8259 5.9377C78.8259 6.9352 78.0146 7.6002 76.8309 7.6002ZM76.8309 8.5312C78.0944 8.5312 79.052 9.1297 79.052 10.3666C79.052 11.4838 78.2008 12.2552 76.8309 12.2552C75.461 12.2552 74.5965 11.4971 74.5965 10.3666C74.5965 9.0898 75.594 8.5312 76.8309 8.5312ZM89.8045 3.6235C87.1977 3.6235 85.1495 5.5786 85.1495 8.3583C85.1495 11.138 87.1977 13.0798 89.8045 13.0798C92.3182 13.0798 94.1403 11.2311 94.3531 8.9302V7.9992H89.3656V8.9834H93.063C92.8768 10.8188 91.6266 11.9892 89.8045 11.9892C87.8494 11.9892 86.3864 10.5794 86.3864 8.3583C86.3864 6.1239 87.8494 4.7141 89.8045 4.7141C91.1079 4.7141 92.1187 5.3392 92.6241 6.4165H94.0738C93.3822 4.6343 91.7596 3.6235 89.8045 3.6235ZM97.1637 9.0366C97.1637 7.3475 98.0415 6.8288 99.1986 6.8288H99.5178V5.5786C98.3607 5.5786 97.576 6.084 97.1637 6.8953V5.7116H95.9534V13H97.1637V9.0366ZM100.463 9.3292C100.463 11.5902 101.966 13.1197 103.907 13.1197C105.251 13.1197 106.195 12.4281 106.634 11.6434V13H107.858V5.7116H106.634V7.0416C106.208 6.2835 105.277 5.5919 103.921 5.5919C101.966 5.5919 100.463 7.0549 100.463 9.3292ZM106.634 9.3425C106.634 11.0582 105.49 12.0557 104.16 12.0557C102.83 12.0557 101.7 11.0449 101.7 9.3292C101.7 7.6135 102.83 6.6426 104.16 6.6426C105.49 6.6426 106.634 7.6534 106.634 9.3425ZM110.169 11.005C110.169 12.468 110.9 13 112.19 13H113.281V11.9759H112.39C111.645 11.9759 111.379 11.7232 111.379 11.005V6.7091H113.281V5.7116H111.379V3.8762H110.169V5.7116H109.225V6.7091H110.169V11.005ZM115.013 11.005C115.013 12.468 115.745 13 117.035 13H118.126V11.9759H117.235C116.49 11.9759 116.224 11.7232 116.224 11.005V6.7091H118.126V5.7116H116.224V3.8762H115.013V5.7116H114.069V6.7091H115.013V11.005ZM119.14 9.3292C119.14 11.5902 120.643 13.1197 122.585 13.1197C123.928 13.1197 124.872 12.4281 125.311 11.6434V13H126.535V5.7116H125.311V7.0416C124.885 6.2835 123.954 5.5919 122.598 5.5919C120.643 5.5919 119.14 7.0549 119.14 9.3292ZM125.311 9.3425C125.311 11.0582 124.167 12.0557 122.837 12.0557C121.507 12.0557 120.377 11.0449 120.377 9.3292C120.377 7.6135 121.507 6.6426 122.837 6.6426C124.167 6.6426 125.311 7.6534 125.311 9.3425ZM133.913 13H135.11V8.7041C135.11 6.616 133.82 5.5786 132.131 5.5786C131.147 5.5786 130.269 5.9909 129.79 6.749V5.7116H128.58V13H129.79V8.9701C129.79 7.4007 130.641 6.6293 131.878 6.6293C133.102 6.6293 133.913 7.3874 133.913 8.877V13ZM146.658 10.473C146.658 7.0416 141.657 8.5312 141.657 6.1372C141.657 5.1397 142.442 4.621 143.439 4.6476C144.57 4.6609 145.155 5.3658 145.235 5.9909H146.565C146.419 4.5811 145.261 3.6102 143.493 3.6102C141.657 3.6102 140.42 4.6476 140.42 6.1771C140.42 9.6218 145.434 8.0258 145.434 10.5262C145.434 11.404 144.743 12.069 143.572 12.069C142.282 12.069 141.737 11.2976 141.657 10.5262H140.367C140.394 12.0557 141.71 13.0931 143.572 13.0931C145.581 13.0931 146.658 11.7897 146.658 10.473ZM148.705 11.005C148.705 12.468 149.437 13 150.727 13H151.817V11.9759H150.926C150.181 11.9759 149.915 11.7232 149.915 11.005V6.7091H151.817V5.7116H149.915V3.8762H148.705V5.7116H147.761V6.7091H148.705V11.005ZM152.233 14.9019H153.044L154.534 11.3242H153.204L152.233 14.9019ZM164.733 10.3932C164.733 11.404 164.015 12.0025 162.818 12.0025H160.676V8.7307H162.778C163.962 8.7307 164.733 9.3691 164.733 10.3932ZM164.494 6.2303C164.494 7.1746 163.842 7.7332 162.711 7.7332H160.676V4.7274H162.685C163.868 4.7274 164.494 5.3126 164.494 6.2303ZM165.943 10.5129C165.943 9.3691 165.119 8.3982 164.108 8.2253C164.999 7.9327 165.73 7.2544 165.73 6.084C165.73 4.7939 164.746 3.7299 162.791 3.7299H159.466V13H162.924C164.839 13 165.943 11.9094 165.943 10.5129ZM168.833 9.0366C168.833 7.3475 169.711 6.8288 170.868 6.8288H171.187V5.5786C170.03 5.5786 169.245 6.084 168.833 6.8953V5.7116H167.623V13H168.833V9.0366ZM179.5 9.3425C179.5 7.0416 177.891 5.5919 175.816 5.5919C173.755 5.5919 172.132 7.0416 172.132 9.3425C172.132 11.6567 173.701 13.1197 175.763 13.1197C177.838 13.1197 179.5 11.6567 179.5 9.3425ZM173.369 9.3425C173.369 7.5071 174.526 6.6426 175.803 6.6426C177.053 6.6426 178.263 7.5071 178.263 9.3425C178.263 11.1912 177.026 12.0557 175.763 12.0557C174.499 12.0557 173.369 11.1912 173.369 9.3425ZM188.008 9.3425C188.008 7.0416 186.398 5.5919 184.323 5.5919C182.262 5.5919 180.639 7.0416 180.639 9.3425C180.639 11.6567 182.209 13.1197 184.27 13.1197C186.345 13.1197 188.008 11.6567 188.008 9.3425ZM181.876 9.3425C181.876 7.5071 183.033 6.6426 184.31 6.6426C185.56 6.6426 186.771 7.5071 186.771 9.3425C186.771 11.1912 185.534 12.0557 184.27 12.0557C183.007 12.0557 181.876 11.1912 181.876 9.3425ZM189.599 13H190.809V9.7814L193.669 13H195.318L191.873 9.3425L195.305 5.7116H193.616L190.809 8.9435V3.158H189.599V13ZM196.444 13H197.654V3.158H196.444V13ZM202.483 11.6168L200.196 5.7116H198.852L201.792 12.9202L200.355 16.4314H201.605L205.994 5.7116H204.744L202.483 11.6168ZM212.544 13H213.741V8.7041C213.741 6.616 212.451 5.5786 210.762 5.5786C209.778 5.5786 208.9 5.9909 208.421 6.749V5.7116H207.211V13H208.421V8.9701C208.421 7.4007 209.273 6.6293 210.509 6.6293C211.733 6.6293 212.544 7.3874 212.544 8.877V13Z" fill="white"/>
<path d="M13 7.4C13 10.9346 7 17 7 17C7 17 1 10.9346 1 7.4C1 3.86538 3.68629 1 7 1C10.3137 1 13 3.86538 13 7.4Z" stroke="white" stroke-width="1.2"/>
<path d="M7 8.19998C7.41422 8.19998 7.75 7.84182 7.75 7.39998C7.75 6.95815 7.41422 6.59998 7 6.59998C6.58578 6.59998 6.25 6.95815 6.25 7.39998C6.25 7.84182 6.58578 8.19998 7 8.19998Z" fill="#2B2B2B" stroke="white" stroke-width="1.2" stroke-linecap="round" stroke-linejoin="round"/>
</svg>
